<?xml version="1.0" standalone="no"?>
<!DOCTYPE svg PUBLIC "-//W3C//DTD SVG 20010904//EN"
 "http://www.w3.org/TR/2001/REC-SVG-20010904/DTD/svg10.dtd">
<svg version="1.0" xmlns="http://www.w3.org/2000/svg"
 width="200.000000pt" height="200.000000pt" viewBox="0 0 200.000000 200.000000"
 preserveAspectRatio="xMidYMid meet">
<metadata>
Created by potrace 1.11, written by Peter Selinger 2001-2013
</metadata>
<g transform="translate(0.000000,200.000000) scale(0.100000,-0.100000)"
fill="#000000" stroke="none">
<path d="M573 1620 c-22 -5 -74 -23 -115 -40 -62 -25 -77 -36 -91 -65 -9 -19
-15 -35 -13 -35 2 0 25 10 52 22 56 25 178 58 214 58 13 0 38 -13 55 -30 l31
-30 23 41 c13 22 21 41 20 43 -60 44 -96 51 -176 36z"/>
<path d="M1283 1607 l-41 -22 21 -42 22 -42 33 30 c18 16 43 29 55 29 34 0
166 -36 217 -59 25 -11 46 -18 48 -17 1 2 -3 16 -10 31 -15 34 -86 70 -186 96
-94 24 -107 23 -159 -4z"/>
<path d="M810 1582 c-43 -3 -48 -6 -70 -46 l-23 -44 30 -38 c72 -90 63 -87
243 -87 109 0 168 4 183 12 12 7 41 36 64 64 l43 50 -22 36 c-12 20 -25 40
-29 45 -7 8 -323 14 -419 8z m244 -51 c24 -24 27 -81 6 -106 -62 -75 -177 1
-133 88 25 49 87 57 127 18z"/>
<path d="M524 1526 c-43 -12 -109 -36 -145 -53 -63 -31 -67 -35 -96 -100 -58
-130 -162 -445 -178 -538 -33 -194 -22 -297 37 -370 28 -33 95 -74 123 -75 17
0 62 38 171 143 141 136 169 155 240 164 33 5 195 7 360 7 361 -2 338 5 495
-147 146 -143 183 -171 217 -162 128 31 184 182 147 400 -19 110 -134 471
-185 578 -29 63 -36 70 -93 99 -82 41 -187 71 -247 70 -16 0 -39 -16 -69 -49
-24 -26 -64 -69 -89 -95 l-44 -48 -170 0 -171 0 -41 43 c-22 24 -62 66 -89 94
-26 28 -58 53 -70 55 -13 3 -59 -5 -103 -16z m972 -105 c6 -1 17 -15 24 -32
32 -75 -71 -122 -110 -49 -19 36 19 92 59 85 9 -2 21 -4 27 -4z m-900 -57 c43
-21 79 -90 70 -138 -18 -94 -124 -145 -203 -96 -78 47 -91 142 -30 209 41 43
103 53 163 25z m785 -80 c42 -38 4 -112 -49 -99 -15 4 -33 11 -39 17 -20 16
-15 65 8 87 24 22 53 20 80 -5z m261 -7 c29 -45 -15 -106 -67 -93 -50 13 -59
92 -13 113 25 11 67 1 80 -20z m-742 -16 c11 -22 4 -50 -14 -52 -43 -5 -68 17
-55 49 11 28 54 30 69 3z m268 -13 c6 -47 -59 -62 -73 -17 -9 27 13 51 44 47
20 -2 27 -9 29 -30z m342 -88 c27 -27 25 -56 -6 -85 -21 -20 -30 -22 -53 -14
-30 11 -56 53 -45 72 29 50 70 61 104 27z m-205 -80 c115 -71 60 -250 -77
-250 -66 0 -130 66 -130 135 0 105 118 170 207 115z m-504 -7 c1 -5 2 -21 4
-38 1 -16 3 -34 4 -38 0 -5 11 -8 24 -7 55 5 58 2 55 -42 -3 -41 -4 -42 -38
-44 -19 -1 -38 -2 -42 -3 -4 -1 -5 -17 -4 -37 3 -29 0 -37 -17 -43 -12 -5 -33
-5 -47 -1 -21 5 -25 12 -25 43 0 20 -2 37 -5 38 -3 1 -18 2 -35 4 -16 1 -33 3
-37 4 -14 2 -9 81 5 82 6 1 26 2 42 3 27 1 30 5 31 34 1 17 2 37 3 42 1 11 80
14 82 3z"/>
<path d="M1431 1396 c-18 -21 -10 -56 16 -73 20 -14 24 -13 48 12 25 24 26 28
12 48 -17 27 -59 34 -76 13z"/>
<path d="M466 1315 c-14 -13 -27 -31 -27 -40 -1 -8 -2 -21 -3 -27 -7 -45 45
-98 94 -98 66 0 115 71 90 131 -26 62 -104 80 -154 34z"/>
<path d="M1306 1271 c-23 -25 -17 -52 13 -67 45 -23 83 21 56 62 -19 29 -46
31 -69 5z"/>
<path d="M1558 1273 c-19 -22 -15 -50 8 -67 34 -26 82 11 67 51 -13 36 -50 44
-75 16z"/>
<path d="M1435 1150 c-22 -24 -13 -66 15 -75 25 -8 56 9 63 34 11 44 -48 75
-78 41z"/>
<path d="M1179 1043 c-38 -23 -51 -73 -30 -115 34 -69 123 -78 161 -15 28 46
25 83 -9 118 -34 34 -80 38 -122 12z"/>
</g>
</svg>
